<svg xmlns="http://www.w3.org/2000/svg" xmlns:xlink="http://www.w3.org/1999/xlink" width="1000" height="1000"><path fill="#006fab" d="M0 0h1000v1000H0z"/><g transform="translate(194.11 100) scale(23.52941)"><defs><path id="a" d="M0 0v34h26V0z"/></defs><g fill="none" fill-rule="evenodd"><mask id="b" fill="#fff"><use xlink:href="#a"/></mask><path fill="#FEFEFE" d="M10.85 30.01c.13-.63 1.6-8.23 1.84-8.2 3.9.7 5.7-2.33 7.2 3.36.21.77-3.91 4.34-4.46 4.82a24.32 24.32 0 0 0-4.58.02zm-3.43-3.6-4.06-9.54.08-.04c.4-.15.81-.29 1.2-.4.79-.22 3.1 3.2 3.54 3.48.66.43 1.05.35 1.46.37l-.02-.02-.17-.13c-2.08-1.6-1.23-4.61-1.23-4.61.04 3.07 1.85 5.04 1.9 5.17l.02.03.12.2c.53 1.04-.13 7.75-.28 9.22-.36.06-.7.14-1.03.23l.93-2.55-2.46-1.41zm-.7 2.28c0-.5.4-.91.88-.91s.87.4.87.9-.4.92-.87.92a.9.9 0 0 1-.87-.91zm5.32-23.35a32.3 32.3 0 0 1 1.75-.4l.22-.06c-.11.35-.29.63-.52.8-.3.2-.64.2-1.03-.03a2.2 2.2 0 0 1-.42-.31zm-.94 1.48c-.2.34-.54.5-.98.47a1.81 1.81 0 0 1-.61-.14c.38-.56.96-1.18 1.79-1.56.06.46 0 .91-.2 1.23zM21.8 22.4c.7.75 2.15 2.58 2.27 3.33.13.82-2.67 4.24-3.33 5.03a43.86 43.86 0 0 0-4.68-.73c.29-.03.62-.12.9-.33 1.79-1.32 5.03-4.66 4.87-4.77a5.27 5.27 0 0 1-.9-1.7c0-.18.14-.88.34-1.1l-.16-.09c-2.17-1.09-2.17-4.55-2.17-4.55.76 3.2 2.7 4.73 2.87 4.9zm-.26 8.53c.32-.04.63-.14.73-.39.17-.43 3.8-4.96 3.73-5.35-.07-.38-1.27-2.89-1.35-3.43-.07-.54.15-3.09.15-3.09l.22 2.7s.52-.79.6-2.47c.1-1.98-.9-3.35-2.45-3.86-.77-.25-1.46-.1-1.94-.05-1.53.16-2.88.03-3.46.06-3.43.15-4.3-.93-4.96-1.94-1.22-1.87-1.48-1.67-2.62-3.89.4-.15.69-.31.69-.31s.66-.47-.15-.64c-.37-.08-.8-.06-1.14-.02a1.23 1.23 0 0 0-.52-.36l.09-.17c.21.1.57.23.99.23.4 0 .83-.12 1.23-.55.38-.4.5-.9.47-1.38.28.22.66.43 1.1.43.2 0 .4-.04.6-.13.67-.27.91-.93.99-1.56.6-.15 1.04-.31 1.42-.64.64-.56 1.56-1.85 1.48-2.1l-.03-.08-.07-.01c-.27-.04-.65.51-.65.52-.14.21-.57.72-1 1.07a2.09 2.09 0 0 1 1.03-2.18c.04-.02.25-.22.23-.37a.15.15 0 0 0-.1-.14L16.8.83l-.04.02c-.02 0-2.06.89-1.62 2.92l.02.07a4.92 4.92 0 0 1-.6.2 4.92 4.92 0 0 0-.08-.69v-.03l-.02-.02a.17.17 0 0 0-.22-.05c-.09.05-.18.18-.16.27.04.2.05.43.04.64-.38.09-.79.17-1.17.24-.56.1-1.07.2-1.44.32a4.14 4.14 0 0 0-.24-.46l-.01-.03-.03-.01a.18.18 0 0 0-.22.04c-.06.07-.11.23-.06.3.06.1.11.22.16.33-.52.26-1.38.73-2.09 1.67a1.5 1.5 0 0 1-.34.16c.09-.71.32-1.57.9-2.22.45-.5.84-.9 1.15-1.22.6-.6 1-1 1.18-1.54.23-.65.38-1.53.23-1.7A.14.14 0 0 0 12 .02c-.17.06-.22.5-.22.5a3.39 3.39 0 0 1-1.08 2.07 1.44 1.44 0 0 1-.29-.96c.02-.37.18-.7.41-.9.08-.05.05-.17.04-.22-.03-.1-.1-.16-.18-.17h-.04l-.04.03c-.01 0-1.16.94-.43 2.24.06.11.13.22.2.31l-.47.45c-.4.37-.75.7-1 1.07v.01c-.15-.53.02-1.11.36-1.38.07-.07.04-.2.03-.24-.05-.13-.14-.15-.18-.15h-.04l-.04.02c0 .01-1.15.94-.43 2.24a4.76 4.76 0 0 0-.57 1.9h-.05a.68.68 0 0 1-.53-.31c-.3-.48-.17-1.4.3-2.1.05-.07.02-.22-.04-.3a.17.17 0 0 0-.22-.03l-.02.02-.01.02c-.06.08-1.29 1.93-.34 2.91.06.07.13.13.2.18-.34.1-.63.03-.84-.2-.38-.4-.48-1.26-.23-1.94.03-.09-.04-.22-.11-.27a.17.17 0 0 0-.2 0l-.03.03-.01.02c-.03.08-.7 1.92.4 2.72.28.2.56.28.81.28.38 0 .7-.16.93-.3l.01.16.04.28c-.5.2-1.05.53-1.74.74-.5.16-2.21.8-2.35.86-.14.06-.1.43-.1.56.01.1.43.51.55.56.13.05 2.58.68 3.28.86 0 0 .27.56-.33 2.64-.46 1.58.07 2.49.07 2.49L5.7 15.49c-.85-.6-3.55.6-5.14 1.74-.65.47-.55 1.12-.55 1.12l.78 1.72.73-.42h.01a.66.66 0 0 1-.47-.63c0-.36.3-.66.65-.66a.65.65 0 0 1 .65.7v.01a.65.65 0 0 1 .6-.4c.35 0 .64.3.64.66a.65.65 0 0 1-.7.66.66.66 0 0 1-.36 1.2.65.65 0 0 1-.62-.84H1.9l-.76.35.76 1.52 2.16-1.04 2.33 5.5-1 3.2 2.43.9C6.4 31.4 5.43 32.42 5.25 34c0 0 1.59-1.6 5.66-2.35 4.5-.83 9.9-.2 12.8.22 1.62.23 2.16.1 2.16.1s-1.69-.33-2.64-.6a35.77 35.77 0 0 0-1.7-.43z" mask="url(#b)"/></g></g></svg>